<svg xmlns="http://www.w3.org/2000/svg" width="112" height="128" viewBox="0 0 112 128" fill="none">
  <ellipse cx="56" cy="119" rx="35" ry="5" fill="#e7b8ba" opacity=".25"/>
  <path d="M31 28h50v12l8 10v48c0 11-9 18-19 18H42c-10 0-19-7-19-18V50l8-10V28Z" fill="#fff1d7" stroke="#925569" stroke-width="2.5"/>
  <path d="M30 15h52v19H30z" fill="#eba6b7" stroke="#925569" stroke-width="2.5" stroke-linejoin="round"/>
  <path d="M38 15v19m12-19v19m12-19v19m12-19v19" stroke="#fff5ea" stroke-width="3"/>
  <rect x="23" y="50" width="66" height="51" rx="12" fill="#f5c5cf"/>
  <path d="M36 43h38" stroke="#fffdf5" stroke-width="4" stroke-linecap="round"/>
  <ellipse cx="39" cy="78" rx="7" ry="4" fill="#e68d9e"/><ellipse cx="73" cy="78" rx="7" ry="4" fill="#e68d9e"/>
  <path d="M43 67v4m26-4v4m-20 7c4 6 10 6 14 0" stroke="#734853" stroke-width="3" stroke-linecap="round"/>
  <path d="M50 99c-5-7-7-14 1-17 4-1 5 3 5 3s3-4 7-2c7 4 3 11-7 16Z" fill="#b75573"/>
  <path d="m95 25 3-5 3 5 5 3-5 3-3 5-3-5-5-3 5-3ZM8 51l2-3 2 3 3 2-3 2-2 3-2-3-3-2 3-2Z" fill="#e0b260"/>
</svg>
